<mxfile host="Electron" modified="2024-03-24T19:44:26.312Z" agent="Mozilla/5.0 (Windows NT 10.0; Win64; x64) AppleWebKit/537.36 (KHTML, like Gecko) draw.io/21.6.8 Chrome/114.0.5735.289 Electron/25.5.0 Safari/537.36" etag="i9o_3nDpIi_FFWcc1Dxt" version="21.6.8" type="device">
  <diagram id="C5RBs43oDa-KdzZeNtuy" name="Page-1">
    <mxGraphModel dx="2589" dy="2660" grid="1" gridSize="10" guides="1" tooltips="1" connect="1" arrows="1" fold="1" page="1" pageScale="1" pageWidth="827" pageHeight="1169" math="0" shadow="0">
      <root>
        <mxCell id="WIyWlLk6GJQsqaUBKTNV-0" />
        <mxCell id="WIyWlLk6GJQsqaUBKTNV-1" parent="WIyWlLk6GJQsqaUBKTNV-0" />
        <mxCell id="ddc55oH1tEbDEhmzvNyg-39" style="edgeStyle=orthogonalEdgeStyle;rounded=0;orthogonalLoop=1;jettySize=auto;html=1;" edge="1" parent="WIyWlLk6GJQsqaUBKTNV-1" source="ddc55oH1tEbDEhmzvNyg-0" target="ddc55oH1tEbDEhmzvNyg-13">
          <mxGeometry relative="1" as="geometry">
            <Array as="points">
              <mxPoint x="219.91000000000003" y="239" />
              <mxPoint x="219.91000000000003" y="239" />
            </Array>
          </mxGeometry>
        </mxCell>
        <mxCell id="ddc55oH1tEbDEhmzvNyg-0" value="ISubscription" style="swimlane;fontStyle=1;align=center;verticalAlign=top;childLayout=stackLayout;horizontal=1;startSize=26;horizontalStack=0;resizeParent=1;resizeParentMax=0;resizeLast=0;collapsible=1;marginBottom=0;whiteSpace=wrap;html=1;" vertex="1" parent="WIyWlLk6GJQsqaUBKTNV-1">
          <mxGeometry x="39.910000000000025" y="200" width="160" height="216" as="geometry" />
        </mxCell>
        <mxCell id="ddc55oH1tEbDEhmzvNyg-1" value="+ Price: double" style="text;strokeColor=none;fillColor=none;align=left;verticalAlign=top;spacingLeft=4;spacingRight=4;overflow=hidden;rotatable=0;points=[[0,0.5],[1,0.5]];portConstraint=eastwest;whiteSpace=wrap;html=1;" vertex="1" parent="ddc55oH1tEbDEhmzvNyg-0">
          <mxGeometry y="26" width="160" height="26" as="geometry" />
        </mxCell>
        <mxCell id="ddc55oH1tEbDEhmzvNyg-4" value="+ MinPeriod: int" style="text;strokeColor=none;fillColor=none;align=left;verticalAlign=top;spacingLeft=4;spacingRight=4;overflow=hidden;rotatable=0;points=[[0,0.5],[1,0.5]];portConstraint=eastwest;whiteSpace=wrap;html=1;" vertex="1" parent="ddc55oH1tEbDEhmzvNyg-0">
          <mxGeometry y="52" width="160" height="26" as="geometry" />
        </mxCell>
        <mxCell id="ddc55oH1tEbDEhmzvNyg-5" value="+ Channels: List&amp;lt;Channel&amp;gt;" style="text;strokeColor=none;fillColor=none;align=left;verticalAlign=top;spacingLeft=4;spacingRight=4;overflow=hidden;rotatable=0;points=[[0,0.5],[1,0.5]];portConstraint=eastwest;whiteSpace=wrap;html=1;" vertex="1" parent="ddc55oH1tEbDEhmzvNyg-0">
          <mxGeometry y="78" width="160" height="26" as="geometry" />
        </mxCell>
        <mxCell id="ddc55oH1tEbDEhmzvNyg-6" value="+ Owner: string" style="text;strokeColor=none;fillColor=none;align=left;verticalAlign=top;spacingLeft=4;spacingRight=4;overflow=hidden;rotatable=0;points=[[0,0.5],[1,0.5]];portConstraint=eastwest;whiteSpace=wrap;html=1;" vertex="1" parent="ddc55oH1tEbDEhmzvNyg-0">
          <mxGeometry y="104" width="160" height="26" as="geometry" />
        </mxCell>
        <mxCell id="ddc55oH1tEbDEhmzvNyg-7" value="+ Start: DateTime" style="text;strokeColor=none;fillColor=none;align=left;verticalAlign=top;spacingLeft=4;spacingRight=4;overflow=hidden;rotatable=0;points=[[0,0.5],[1,0.5]];portConstraint=eastwest;whiteSpace=wrap;html=1;" vertex="1" parent="ddc55oH1tEbDEhmzvNyg-0">
          <mxGeometry y="130" width="160" height="26" as="geometry" />
        </mxCell>
        <mxCell id="ddc55oH1tEbDEhmzvNyg-8" value="+ End: DateTime" style="text;strokeColor=none;fillColor=none;align=left;verticalAlign=top;spacingLeft=4;spacingRight=4;overflow=hidden;rotatable=0;points=[[0,0.5],[1,0.5]];portConstraint=eastwest;whiteSpace=wrap;html=1;" vertex="1" parent="ddc55oH1tEbDEhmzvNyg-0">
          <mxGeometry y="156" width="160" height="26" as="geometry" />
        </mxCell>
        <mxCell id="ddc55oH1tEbDEhmzvNyg-2" value="" style="line;strokeWidth=1;fillColor=none;align=left;verticalAlign=middle;spacingTop=-1;spacingLeft=3;spacingRight=3;rotatable=0;labelPosition=right;points=[];portConstraint=eastwest;strokeColor=inherit;" vertex="1" parent="ddc55oH1tEbDEhmzvNyg-0">
          <mxGeometry y="182" width="160" height="8" as="geometry" />
        </mxCell>
        <mxCell id="ddc55oH1tEbDEhmzvNyg-3" value="+ Extend(int): void" style="text;strokeColor=none;fillColor=none;align=left;verticalAlign=top;spacingLeft=4;spacingRight=4;overflow=hidden;rotatable=0;points=[[0,0.5],[1,0.5]];portConstraint=eastwest;whiteSpace=wrap;html=1;" vertex="1" parent="ddc55oH1tEbDEhmzvNyg-0">
          <mxGeometry y="190" width="160" height="26" as="geometry" />
        </mxCell>
        <mxCell id="ddc55oH1tEbDEhmzvNyg-13" value="Channel" style="swimlane;fontStyle=0;childLayout=stackLayout;horizontal=1;startSize=26;fillColor=none;horizontalStack=0;resizeParent=1;resizeParentMax=0;resizeLast=0;collapsible=1;marginBottom=0;whiteSpace=wrap;html=1;" vertex="1" parent="WIyWlLk6GJQsqaUBKTNV-1">
          <mxGeometry x="239.91000000000003" y="200" width="160" height="78" as="geometry" />
        </mxCell>
        <mxCell id="ddc55oH1tEbDEhmzvNyg-14" value="+ Title: string" style="text;strokeColor=none;fillColor=none;align=left;verticalAlign=top;spacingLeft=4;spacingRight=4;overflow=hidden;rotatable=0;points=[[0,0.5],[1,0.5]];portConstraint=eastwest;whiteSpace=wrap;html=1;" vertex="1" parent="ddc55oH1tEbDEhmzvNyg-13">
          <mxGeometry y="26" width="160" height="26" as="geometry" />
        </mxCell>
        <mxCell id="ddc55oH1tEbDEhmzvNyg-15" value="+ ImagePath: string" style="text;strokeColor=none;fillColor=none;align=left;verticalAlign=top;spacingLeft=4;spacingRight=4;overflow=hidden;rotatable=0;points=[[0,0.5],[1,0.5]];portConstraint=eastwest;whiteSpace=wrap;html=1;" vertex="1" parent="ddc55oH1tEbDEhmzvNyg-13">
          <mxGeometry y="52" width="160" height="26" as="geometry" />
        </mxCell>
        <mxCell id="ddc55oH1tEbDEhmzvNyg-40" style="edgeStyle=orthogonalEdgeStyle;rounded=0;orthogonalLoop=1;jettySize=auto;html=1;endArrow=block;endFill=0;dashed=1;" edge="1" parent="WIyWlLk6GJQsqaUBKTNV-1" source="ddc55oH1tEbDEhmzvNyg-17" target="ddc55oH1tEbDEhmzvNyg-0">
          <mxGeometry relative="1" as="geometry">
            <Array as="points">
              <mxPoint x="279.91" y="510" />
              <mxPoint x="279.91" y="308" />
            </Array>
          </mxGeometry>
        </mxCell>
        <mxCell id="ddc55oH1tEbDEhmzvNyg-17" value="DomesticSubscription" style="swimlane;fontStyle=1;align=center;verticalAlign=top;childLayout=stackLayout;horizontal=1;startSize=26;horizontalStack=0;resizeParent=1;resizeParentMax=0;resizeLast=0;collapsible=1;marginBottom=0;whiteSpace=wrap;html=1;" vertex="1" parent="WIyWlLk6GJQsqaUBKTNV-1">
          <mxGeometry x="39.910000000000025" y="480" width="200" height="60" as="geometry" />
        </mxCell>
        <mxCell id="ddc55oH1tEbDEhmzvNyg-19" value="" style="line;strokeWidth=1;fillColor=none;align=left;verticalAlign=middle;spacingTop=-1;spacingLeft=3;spacingRight=3;rotatable=0;labelPosition=right;points=[];portConstraint=eastwest;strokeColor=inherit;" vertex="1" parent="ddc55oH1tEbDEhmzvNyg-17">
          <mxGeometry y="26" width="200" height="8" as="geometry" />
        </mxCell>
        <mxCell id="ddc55oH1tEbDEhmzvNyg-20" value="+ ToString(): string" style="text;strokeColor=none;fillColor=none;align=left;verticalAlign=top;spacingLeft=4;spacingRight=4;overflow=hidden;rotatable=0;points=[[0,0.5],[1,0.5]];portConstraint=eastwest;whiteSpace=wrap;html=1;" vertex="1" parent="ddc55oH1tEbDEhmzvNyg-17">
          <mxGeometry y="34" width="200" height="26" as="geometry" />
        </mxCell>
        <mxCell id="ddc55oH1tEbDEhmzvNyg-41" style="edgeStyle=orthogonalEdgeStyle;rounded=0;orthogonalLoop=1;jettySize=auto;html=1;endArrow=block;endFill=0;dashed=1;" edge="1" parent="WIyWlLk6GJQsqaUBKTNV-1" source="ddc55oH1tEbDEhmzvNyg-23" target="ddc55oH1tEbDEhmzvNyg-0">
          <mxGeometry relative="1" as="geometry">
            <Array as="points">
              <mxPoint x="279.91" y="600" />
              <mxPoint x="279.91" y="308" />
            </Array>
          </mxGeometry>
        </mxCell>
        <mxCell id="ddc55oH1tEbDEhmzvNyg-23" value="EducationalSubscription" style="swimlane;fontStyle=1;align=center;verticalAlign=top;childLayout=stackLayout;horizontal=1;startSize=26;horizontalStack=0;resizeParent=1;resizeParentMax=0;resizeLast=0;collapsible=1;marginBottom=0;whiteSpace=wrap;html=1;" vertex="1" parent="WIyWlLk6GJQsqaUBKTNV-1">
          <mxGeometry x="39.910000000000025" y="560" width="200" height="60" as="geometry" />
        </mxCell>
        <mxCell id="ddc55oH1tEbDEhmzvNyg-24" value="" style="line;strokeWidth=1;fillColor=none;align=left;verticalAlign=middle;spacingTop=-1;spacingLeft=3;spacingRight=3;rotatable=0;labelPosition=right;points=[];portConstraint=eastwest;strokeColor=inherit;" vertex="1" parent="ddc55oH1tEbDEhmzvNyg-23">
          <mxGeometry y="26" width="200" height="8" as="geometry" />
        </mxCell>
        <mxCell id="ddc55oH1tEbDEhmzvNyg-25" value="+ ToString(): string" style="text;strokeColor=none;fillColor=none;align=left;verticalAlign=top;spacingLeft=4;spacingRight=4;overflow=hidden;rotatable=0;points=[[0,0.5],[1,0.5]];portConstraint=eastwest;whiteSpace=wrap;html=1;" vertex="1" parent="ddc55oH1tEbDEhmzvNyg-23">
          <mxGeometry y="34" width="200" height="26" as="geometry" />
        </mxCell>
        <mxCell id="ddc55oH1tEbDEhmzvNyg-42" style="edgeStyle=orthogonalEdgeStyle;rounded=0;orthogonalLoop=1;jettySize=auto;html=1;endArrow=block;endFill=0;dashed=1;" edge="1" parent="WIyWlLk6GJQsqaUBKTNV-1" source="ddc55oH1tEbDEhmzvNyg-26" target="ddc55oH1tEbDEhmzvNyg-0">
          <mxGeometry relative="1" as="geometry">
            <Array as="points">
              <mxPoint x="279.91" y="670" />
              <mxPoint x="279.91" y="308" />
            </Array>
          </mxGeometry>
        </mxCell>
        <mxCell id="ddc55oH1tEbDEhmzvNyg-26" value="PremiumSubscription" style="swimlane;fontStyle=1;align=center;verticalAlign=top;childLayout=stackLayout;horizontal=1;startSize=26;horizontalStack=0;resizeParent=1;resizeParentMax=0;resizeLast=0;collapsible=1;marginBottom=0;whiteSpace=wrap;html=1;" vertex="1" parent="WIyWlLk6GJQsqaUBKTNV-1">
          <mxGeometry x="39.910000000000025" y="640" width="200" height="60" as="geometry" />
        </mxCell>
        <mxCell id="ddc55oH1tEbDEhmzvNyg-27" value="" style="line;strokeWidth=1;fillColor=none;align=left;verticalAlign=middle;spacingTop=-1;spacingLeft=3;spacingRight=3;rotatable=0;labelPosition=right;points=[];portConstraint=eastwest;strokeColor=inherit;" vertex="1" parent="ddc55oH1tEbDEhmzvNyg-26">
          <mxGeometry y="26" width="200" height="8" as="geometry" />
        </mxCell>
        <mxCell id="ddc55oH1tEbDEhmzvNyg-28" value="+ ToString(): string" style="text;strokeColor=none;fillColor=none;align=left;verticalAlign=top;spacingLeft=4;spacingRight=4;overflow=hidden;rotatable=0;points=[[0,0.5],[1,0.5]];portConstraint=eastwest;whiteSpace=wrap;html=1;" vertex="1" parent="ddc55oH1tEbDEhmzvNyg-26">
          <mxGeometry y="34" width="200" height="26" as="geometry" />
        </mxCell>
        <mxCell id="ddc55oH1tEbDEhmzvNyg-87" style="edgeStyle=orthogonalEdgeStyle;rounded=0;orthogonalLoop=1;jettySize=auto;html=1;" edge="1" parent="WIyWlLk6GJQsqaUBKTNV-1" source="ddc55oH1tEbDEhmzvNyg-35" target="ddc55oH1tEbDEhmzvNyg-0">
          <mxGeometry relative="1" as="geometry">
            <Array as="points">
              <mxPoint x="20" y="220" />
              <mxPoint x="20" y="220" />
            </Array>
          </mxGeometry>
        </mxCell>
        <mxCell id="ddc55oH1tEbDEhmzvNyg-35" value="ISubscriptionCreator" style="swimlane;fontStyle=1;align=center;verticalAlign=top;childLayout=stackLayout;horizontal=1;startSize=26;horizontalStack=0;resizeParent=1;resizeParentMax=0;resizeLast=0;collapsible=1;marginBottom=0;whiteSpace=wrap;html=1;" vertex="1" parent="WIyWlLk6GJQsqaUBKTNV-1">
          <mxGeometry x="-360.09" y="199" width="280" height="80" as="geometry" />
        </mxCell>
        <mxCell id="ddc55oH1tEbDEhmzvNyg-37" value="" style="line;strokeWidth=1;fillColor=none;align=left;verticalAlign=middle;spacingTop=-1;spacingLeft=3;spacingRight=3;rotatable=0;labelPosition=right;points=[];portConstraint=eastwest;strokeColor=inherit;" vertex="1" parent="ddc55oH1tEbDEhmzvNyg-35">
          <mxGeometry y="26" width="280" height="8" as="geometry" />
        </mxCell>
        <mxCell id="ddc55oH1tEbDEhmzvNyg-38" value="+ CreateSubscription(string, DateTime, DateTime): ISubscription" style="text;strokeColor=none;fillColor=none;align=left;verticalAlign=middle;spacingLeft=4;spacingRight=4;overflow=hidden;rotatable=0;points=[[0,0.5],[1,0.5]];portConstraint=eastwest;whiteSpace=wrap;html=1;" vertex="1" parent="ddc55oH1tEbDEhmzvNyg-35">
          <mxGeometry y="34" width="280" height="46" as="geometry" />
        </mxCell>
        <mxCell id="ddc55oH1tEbDEhmzvNyg-69" style="edgeStyle=orthogonalEdgeStyle;rounded=0;orthogonalLoop=1;jettySize=auto;html=1;endArrow=block;endFill=0;dashed=1;" edge="1" parent="WIyWlLk6GJQsqaUBKTNV-1" source="ddc55oH1tEbDEhmzvNyg-43" target="ddc55oH1tEbDEhmzvNyg-35">
          <mxGeometry relative="1" as="geometry">
            <Array as="points">
              <mxPoint x="-40" y="360" />
              <mxPoint x="-40" y="260" />
            </Array>
          </mxGeometry>
        </mxCell>
        <mxCell id="ddc55oH1tEbDEhmzvNyg-43" value="DomesticSubscriptionCreator" style="swimlane;fontStyle=1;align=center;verticalAlign=top;childLayout=stackLayout;horizontal=1;startSize=26;horizontalStack=0;resizeParent=1;resizeParentMax=0;resizeLast=0;collapsible=1;marginBottom=0;whiteSpace=wrap;html=1;" vertex="1" parent="WIyWlLk6GJQsqaUBKTNV-1">
          <mxGeometry x="-360.09" y="320" width="280" height="80" as="geometry" />
        </mxCell>
        <mxCell id="ddc55oH1tEbDEhmzvNyg-44" value="" style="line;strokeWidth=1;fillColor=none;align=left;verticalAlign=middle;spacingTop=-1;spacingLeft=3;spacingRight=3;rotatable=0;labelPosition=right;points=[];portConstraint=eastwest;strokeColor=inherit;" vertex="1" parent="ddc55oH1tEbDEhmzvNyg-43">
          <mxGeometry y="26" width="280" height="8" as="geometry" />
        </mxCell>
        <mxCell id="ddc55oH1tEbDEhmzvNyg-45" value="+ CreateSubscription(string,DateTime,DateTime): ISubscription" style="text;strokeColor=none;fillColor=none;align=left;verticalAlign=middle;spacingLeft=4;spacingRight=4;overflow=hidden;rotatable=0;points=[[0,0.5],[1,0.5]];portConstraint=eastwest;whiteSpace=wrap;html=1;" vertex="1" parent="ddc55oH1tEbDEhmzvNyg-43">
          <mxGeometry y="34" width="280" height="46" as="geometry" />
        </mxCell>
        <mxCell id="ddc55oH1tEbDEhmzvNyg-68" style="edgeStyle=orthogonalEdgeStyle;rounded=0;orthogonalLoop=1;jettySize=auto;html=1;endArrow=block;endFill=0;dashed=1;" edge="1" parent="WIyWlLk6GJQsqaUBKTNV-1" source="ddc55oH1tEbDEhmzvNyg-47" target="ddc55oH1tEbDEhmzvNyg-35">
          <mxGeometry relative="1" as="geometry">
            <Array as="points">
              <mxPoint x="-40" y="480" />
              <mxPoint x="-40" y="260" />
            </Array>
          </mxGeometry>
        </mxCell>
        <mxCell id="ddc55oH1tEbDEhmzvNyg-47" value="EducationalSubscriptionCreator" style="swimlane;fontStyle=1;align=center;verticalAlign=top;childLayout=stackLayout;horizontal=1;startSize=26;horizontalStack=0;resizeParent=1;resizeParentMax=0;resizeLast=0;collapsible=1;marginBottom=0;whiteSpace=wrap;html=1;" vertex="1" parent="WIyWlLk6GJQsqaUBKTNV-1">
          <mxGeometry x="-360.09" y="440" width="280" height="80" as="geometry" />
        </mxCell>
        <mxCell id="ddc55oH1tEbDEhmzvNyg-48" value="" style="line;strokeWidth=1;fillColor=none;align=left;verticalAlign=middle;spacingTop=-1;spacingLeft=3;spacingRight=3;rotatable=0;labelPosition=right;points=[];portConstraint=eastwest;strokeColor=inherit;" vertex="1" parent="ddc55oH1tEbDEhmzvNyg-47">
          <mxGeometry y="26" width="280" height="8" as="geometry" />
        </mxCell>
        <mxCell id="ddc55oH1tEbDEhmzvNyg-49" value="+ CreateSubscription(string,DateTime,DateTime): ISubscription" style="text;strokeColor=none;fillColor=none;align=left;verticalAlign=middle;spacingLeft=4;spacingRight=4;overflow=hidden;rotatable=0;points=[[0,0.5],[1,0.5]];portConstraint=eastwest;whiteSpace=wrap;html=1;" vertex="1" parent="ddc55oH1tEbDEhmzvNyg-47">
          <mxGeometry y="34" width="280" height="46" as="geometry" />
        </mxCell>
        <mxCell id="ddc55oH1tEbDEhmzvNyg-67" style="edgeStyle=orthogonalEdgeStyle;rounded=0;orthogonalLoop=1;jettySize=auto;html=1;endArrow=block;endFill=0;dashed=1;" edge="1" parent="WIyWlLk6GJQsqaUBKTNV-1" source="ddc55oH1tEbDEhmzvNyg-50" target="ddc55oH1tEbDEhmzvNyg-35">
          <mxGeometry relative="1" as="geometry">
            <Array as="points">
              <mxPoint x="-40" y="600" />
              <mxPoint x="-40" y="260" />
            </Array>
          </mxGeometry>
        </mxCell>
        <mxCell id="ddc55oH1tEbDEhmzvNyg-50" value="PremiumSubscriptionCreator" style="swimlane;fontStyle=1;align=center;verticalAlign=top;childLayout=stackLayout;horizontal=1;startSize=26;horizontalStack=0;resizeParent=1;resizeParentMax=0;resizeLast=0;collapsible=1;marginBottom=0;whiteSpace=wrap;html=1;" vertex="1" parent="WIyWlLk6GJQsqaUBKTNV-1">
          <mxGeometry x="-360.09" y="560" width="280" height="80" as="geometry" />
        </mxCell>
        <mxCell id="ddc55oH1tEbDEhmzvNyg-51" value="" style="line;strokeWidth=1;fillColor=none;align=left;verticalAlign=middle;spacingTop=-1;spacingLeft=3;spacingRight=3;rotatable=0;labelPosition=right;points=[];portConstraint=eastwest;strokeColor=inherit;" vertex="1" parent="ddc55oH1tEbDEhmzvNyg-50">
          <mxGeometry y="26" width="280" height="8" as="geometry" />
        </mxCell>
        <mxCell id="ddc55oH1tEbDEhmzvNyg-52" value="+ CreateSubscription(string,DateTime,DateTime): ISubscription" style="text;strokeColor=none;fillColor=none;align=left;verticalAlign=middle;spacingLeft=4;spacingRight=4;overflow=hidden;rotatable=0;points=[[0,0.5],[1,0.5]];portConstraint=eastwest;whiteSpace=wrap;html=1;" vertex="1" parent="ddc55oH1tEbDEhmzvNyg-50">
          <mxGeometry y="34" width="280" height="46" as="geometry" />
        </mxCell>
        <mxCell id="ddc55oH1tEbDEhmzvNyg-66" style="edgeStyle=orthogonalEdgeStyle;rounded=0;orthogonalLoop=1;jettySize=auto;html=1;endArrow=block;endFill=0;dashed=1;" edge="1" parent="WIyWlLk6GJQsqaUBKTNV-1" source="ddc55oH1tEbDEhmzvNyg-53" target="ddc55oH1tEbDEhmzvNyg-35">
          <mxGeometry relative="1" as="geometry">
            <Array as="points">
              <mxPoint x="-40" y="773" />
              <mxPoint x="-40" y="260" />
            </Array>
          </mxGeometry>
        </mxCell>
        <mxCell id="ddc55oH1tEbDEhmzvNyg-53" value="SubscriptionCreator" style="swimlane;fontStyle=1;align=center;verticalAlign=top;childLayout=stackLayout;horizontal=1;startSize=26;horizontalStack=0;resizeParent=1;resizeParentMax=0;resizeLast=0;collapsible=1;marginBottom=0;whiteSpace=wrap;html=1;" vertex="1" parent="WIyWlLk6GJQsqaUBKTNV-1">
          <mxGeometry x="-360.09" y="680" width="280" height="186" as="geometry" />
        </mxCell>
        <mxCell id="ddc55oH1tEbDEhmzvNyg-56" value="+ Subscriptions: string[]" style="text;strokeColor=none;fillColor=none;align=left;verticalAlign=middle;spacingLeft=4;spacingRight=4;overflow=hidden;rotatable=0;points=[[0,0.5],[1,0.5]];portConstraint=eastwest;whiteSpace=wrap;html=1;" vertex="1" parent="ddc55oH1tEbDEhmzvNyg-53">
          <mxGeometry y="26" width="280" height="34" as="geometry" />
        </mxCell>
        <mxCell id="ddc55oH1tEbDEhmzvNyg-58" value="+ SelectedSubscription: string" style="text;strokeColor=none;fillColor=none;align=left;verticalAlign=middle;spacingLeft=4;spacingRight=4;overflow=hidden;rotatable=0;points=[[0,0.5],[1,0.5]];portConstraint=eastwest;whiteSpace=wrap;html=1;" vertex="1" parent="ddc55oH1tEbDEhmzvNyg-53">
          <mxGeometry y="60" width="280" height="34" as="geometry" />
        </mxCell>
        <mxCell id="ddc55oH1tEbDEhmzvNyg-54" value="" style="line;strokeWidth=1;fillColor=none;align=left;verticalAlign=middle;spacingTop=-1;spacingLeft=3;spacingRight=3;rotatable=0;labelPosition=right;points=[];portConstraint=eastwest;strokeColor=inherit;" vertex="1" parent="ddc55oH1tEbDEhmzvNyg-53">
          <mxGeometry y="94" width="280" height="8" as="geometry" />
        </mxCell>
        <mxCell id="ddc55oH1tEbDEhmzvNyg-59" value="+ SelectSubscription(string): void" style="text;strokeColor=none;fillColor=none;align=left;verticalAlign=middle;spacingLeft=4;spacingRight=4;overflow=hidden;rotatable=0;points=[[0,0.5],[1,0.5]];portConstraint=eastwest;whiteSpace=wrap;html=1;" vertex="1" parent="ddc55oH1tEbDEhmzvNyg-53">
          <mxGeometry y="102" width="280" height="38" as="geometry" />
        </mxCell>
        <mxCell id="ddc55oH1tEbDEhmzvNyg-55" value="+ CreateSubscription(string,DateTime,DateTime): ISubscription" style="text;strokeColor=none;fillColor=none;align=left;verticalAlign=middle;spacingLeft=4;spacingRight=4;overflow=hidden;rotatable=0;points=[[0,0.5],[1,0.5]];portConstraint=eastwest;whiteSpace=wrap;html=1;" vertex="1" parent="ddc55oH1tEbDEhmzvNyg-53">
          <mxGeometry y="140" width="280" height="46" as="geometry" />
        </mxCell>
        <mxCell id="ddc55oH1tEbDEhmzvNyg-70" value="WebSite" style="swimlane;fontStyle=1;align=center;verticalAlign=top;childLayout=stackLayout;horizontal=1;startSize=26;horizontalStack=0;resizeParent=1;resizeParentMax=0;resizeLast=0;collapsible=1;marginBottom=0;whiteSpace=wrap;html=1;" vertex="1" parent="WIyWlLk6GJQsqaUBKTNV-1">
          <mxGeometry x="360" y="320" width="280" height="172" as="geometry" />
        </mxCell>
        <mxCell id="ddc55oH1tEbDEhmzvNyg-72" value="" style="line;strokeWidth=1;fillColor=none;align=left;verticalAlign=middle;spacingTop=-1;spacingLeft=3;spacingRight=3;rotatable=0;labelPosition=right;points=[];portConstraint=eastwest;strokeColor=inherit;" vertex="1" parent="ddc55oH1tEbDEhmzvNyg-70">
          <mxGeometry y="26" width="280" height="8" as="geometry" />
        </mxCell>
        <mxCell id="ddc55oH1tEbDEhmzvNyg-73" value="+ CreateDomesticsSubscription(string, DateTime, int): ISubscription" style="text;strokeColor=none;fillColor=none;align=left;verticalAlign=top;spacingLeft=4;spacingRight=4;overflow=hidden;rotatable=0;points=[[0,0.5],[1,0.5]];portConstraint=eastwest;whiteSpace=wrap;html=1;" vertex="1" parent="ddc55oH1tEbDEhmzvNyg-70">
          <mxGeometry y="34" width="280" height="46" as="geometry" />
        </mxCell>
        <mxCell id="ddc55oH1tEbDEhmzvNyg-83" value="+ CreateEducationalSubscription(string, DateTime, int): ISubscription" style="text;strokeColor=none;fillColor=none;align=left;verticalAlign=top;spacingLeft=4;spacingRight=4;overflow=hidden;rotatable=0;points=[[0,0.5],[1,0.5]];portConstraint=eastwest;whiteSpace=wrap;html=1;" vertex="1" parent="ddc55oH1tEbDEhmzvNyg-70">
          <mxGeometry y="80" width="280" height="46" as="geometry" />
        </mxCell>
        <mxCell id="ddc55oH1tEbDEhmzvNyg-84" value="+ CreatePremiumSubscription(string, DateTime, int): ISubscription" style="text;strokeColor=none;fillColor=none;align=left;verticalAlign=top;spacingLeft=4;spacingRight=4;overflow=hidden;rotatable=0;points=[[0,0.5],[1,0.5]];portConstraint=eastwest;whiteSpace=wrap;html=1;" vertex="1" parent="ddc55oH1tEbDEhmzvNyg-70">
          <mxGeometry y="126" width="280" height="46" as="geometry" />
        </mxCell>
        <mxCell id="ddc55oH1tEbDEhmzvNyg-74" value="MobileApp" style="swimlane;fontStyle=1;align=center;verticalAlign=top;childLayout=stackLayout;horizontal=1;startSize=26;horizontalStack=0;resizeParent=1;resizeParentMax=0;resizeLast=0;collapsible=1;marginBottom=0;whiteSpace=wrap;html=1;" vertex="1" parent="WIyWlLk6GJQsqaUBKTNV-1">
          <mxGeometry x="360" y="760" width="280" height="100" as="geometry" />
        </mxCell>
        <mxCell id="ddc55oH1tEbDEhmzvNyg-75" value="+ Creator: SubscriptionCreator" style="text;strokeColor=none;fillColor=none;align=left;verticalAlign=top;spacingLeft=4;spacingRight=4;overflow=hidden;rotatable=0;points=[[0,0.5],[1,0.5]];portConstraint=eastwest;whiteSpace=wrap;html=1;" vertex="1" parent="ddc55oH1tEbDEhmzvNyg-74">
          <mxGeometry y="26" width="280" height="26" as="geometry" />
        </mxCell>
        <mxCell id="ddc55oH1tEbDEhmzvNyg-76" value="" style="line;strokeWidth=1;fillColor=none;align=left;verticalAlign=middle;spacingTop=-1;spacingLeft=3;spacingRight=3;rotatable=0;labelPosition=right;points=[];portConstraint=eastwest;strokeColor=inherit;" vertex="1" parent="ddc55oH1tEbDEhmzvNyg-74">
          <mxGeometry y="52" width="280" height="8" as="geometry" />
        </mxCell>
        <mxCell id="ddc55oH1tEbDEhmzvNyg-77" value="+ Subscribe(string,DateTime,DateTime): ISubscription" style="text;strokeColor=none;fillColor=none;align=left;verticalAlign=top;spacingLeft=4;spacingRight=4;overflow=hidden;rotatable=0;points=[[0,0.5],[1,0.5]];portConstraint=eastwest;whiteSpace=wrap;html=1;" vertex="1" parent="ddc55oH1tEbDEhmzvNyg-74">
          <mxGeometry y="60" width="280" height="40" as="geometry" />
        </mxCell>
        <mxCell id="ddc55oH1tEbDEhmzvNyg-78" value="ManagerCall" style="swimlane;fontStyle=1;align=center;verticalAlign=top;childLayout=stackLayout;horizontal=1;startSize=26;horizontalStack=0;resizeParent=1;resizeParentMax=0;resizeLast=0;collapsible=1;marginBottom=0;whiteSpace=wrap;html=1;" vertex="1" parent="WIyWlLk6GJQsqaUBKTNV-1">
          <mxGeometry x="360" y="560" width="280" height="126" as="geometry" />
        </mxCell>
        <mxCell id="ddc55oH1tEbDEhmzvNyg-80" value="" style="line;strokeWidth=1;fillColor=none;align=left;verticalAlign=middle;spacingTop=-1;spacingLeft=3;spacingRight=3;rotatable=0;labelPosition=right;points=[];portConstraint=eastwest;strokeColor=inherit;" vertex="1" parent="ddc55oH1tEbDEhmzvNyg-78">
          <mxGeometry y="26" width="280" height="8" as="geometry" />
        </mxCell>
        <mxCell id="ddc55oH1tEbDEhmzvNyg-81" value="+ GetBestSubscription(string, DateTime, double): ISubscription" style="text;strokeColor=none;fillColor=none;align=left;verticalAlign=top;spacingLeft=4;spacingRight=4;overflow=hidden;rotatable=0;points=[[0,0.5],[1,0.5]];portConstraint=eastwest;whiteSpace=wrap;html=1;" vertex="1" parent="ddc55oH1tEbDEhmzvNyg-78">
          <mxGeometry y="34" width="280" height="46" as="geometry" />
        </mxCell>
        <mxCell id="ddc55oH1tEbDEhmzvNyg-82" value="+ GetEducationalSubscription(string, DateTime, int): ISubscription" style="text;strokeColor=none;fillColor=none;align=left;verticalAlign=top;spacingLeft=4;spacingRight=4;overflow=hidden;rotatable=0;points=[[0,0.5],[1,0.5]];portConstraint=eastwest;whiteSpace=wrap;html=1;" vertex="1" parent="ddc55oH1tEbDEhmzvNyg-78">
          <mxGeometry y="80" width="280" height="46" as="geometry" />
        </mxCell>
      </root>
    </mxGraphModel>
  </diagram>
</mxfile>
